<svg height="512pt" viewBox="0 0 512 512" width="512pt" xmlns="http://www.w3.org/2000/svg"><path d="m413.800781 122h-7.800781l6.597656 178.5 31.203125-15.601562c22.800781-11.398438 37.199219-34.5 37.199219-60.296876v-35.402343c0-36.898438-30.300781-67.199219-67.199219-67.199219zm0 0" fill="#dd3400"/><path d="m98.199219 122c-36.898438 0-67.199219 30.300781-67.199219 67.199219v35.402343c0 25.796876 14.398438 48.898438 37.199219 60.296876l31.203125 15.601562 6.597656-178.5zm0 0" fill="#ff4b00"/><path d="m406 122-26.101562 30h-234.597657l-39.300781-30 45-122h210zm0 0" fill="#ff4b00"/><path d="m406 122-26.101562 30h-123.898438v-152h105zm0 0" fill="#dd3400"/><path d="m0 467v45h8.699219l134.554687-69.136719-39.054687-80.863281c-57 .902344-104.199219 47.699219-104.199219 105zm0 0" fill="#ffbd86"/><path d="m407.800781 362-43.679687 73.523438 139.179687 76.476562h8.699219v-45c0-57.300781-47.199219-104.097656-104.199219-105zm0 0" fill="#f6a96c"/><path d="m503.300781 512h-91l-69-38.699219h-174.601562l-69 38.699219h-91l53.5-52.199219c36.601562-36 43.800781-57.601562 42-97.800781-2.097657-47.101562-8.101563-53.402344-9-63.601562-.898438-10.800782-1.800781-22.199219-2.398438-34.800782-1.199219-19.796875-1.800781-41.996094-1.800781-66.597656 0-26.398438 10.5-66.601562 15-75h300c4.5 8.398438 15 48.601562 15 75 0 24.601562-.601562 46.800781-1.800781 66.597656-.601563 12.601563-1.5 24-2.398438 34.800782-2.101562 25.199218-6.902343 18.601562-9 63.601562-1.800781 40.199219 5.398438 61.800781 42 97.800781zm0 0" fill="#ff7816"/><path d="m503.300781 512h-91l-69-38.699219h-87.300781v-351.300781h150c4.5 8.398438 15 48.601562 15 75 0 24.601562-.601562 46.800781-1.800781 66.597656-.601563 12.601563-1.5 24-2.398438 34.800782-2.101562 25.199218-6.902343 18.601562-9 63.601562-1.800781 40.199219 5.398438 61.800781 42 97.800781zm0 0" fill="#ff4b00"/><path d="m373.40625 473.195312c-16.144531-16.144531-27.476562-35.652343-33.992188-56.527343l-70.988281 16.847656-12.425781 78.484375h156.210938zm0 0" fill="#e2e2e7"/><path d="m138.59375 473.195312-38.804688 38.804688h156.210938l-12.832031-78.949219-70.824219-16.65625c-6.328125 20.976563-17.535156 40.585938-33.75 56.800781zm0 0" fill="#ececf1"/><path d="m339.402344 416.601562-83.402344 95.398438-83.699219-95.699219c9.898438-32.402343 7.796875-68.398437-7.800781-100.800781h182.101562c-15.601562 32.402344-17.402343 68.398438-7.199218 101.101562zm0 0" fill="#ffbd86"/><path d="m339.402344 416.601562-83.402344 95.398438v-196.5h90.601562c-15.601562 32.402344-17.402343 68.398438-7.199218 101.101562zm0 0" fill="#f6a96c"/><path d="m151 182v70.199219c0 110.699219 102 137.699219 105 139.800781 3-1.800781 60.601562-13.800781 90.601562-76.5 9.597657-19.800781 14.398438-41.101562 14.398438-63.300781v-70.199219zm0 0" fill="#fed2a4"/><path d="m256 182h105v70.199219c0 22.199219-4.800781 43.5-14.398438 63.300781-30 62.699219-87.601562 74.699219-90.601562 76.5zm0 0" fill="#ffbd86"/><path d="m406 122c-54.300781 0-17.101562 90-97.800781 90h-104.398438c-80.699219 0-43.5-90-97.800781-90zm0 0" fill="#ff9f00"/><path d="m406 122c-54.300781 0-17.101562 90-97.800781 90h-52.199219v-90zm0 0" fill="#ff7816"/></svg>